<svg width="210" height="119" viewBox="0 0 210 119" fill="none" xmlns="http://www.w3.org/2000/svg">
<path d="M59.5012 17.8594L26.346 65.4607H47.0354C50.2108 65.4607 52.6419 64.7632 54.3289 63.3683C56.0406 61.9734 57.5538 59.1462 58.8686 54.8867L60.0966 55.111L57.7151 68.5246H16.6338V67.1421L49.0077 20.8858H32.858C30.1787 20.8858 28.2313 21.1848 27.0158 21.7826C25.825 22.3555 24.9071 23.2024 24.2621 24.3233C23.642 25.4193 23.0713 27.4868 22.5504 30.5257H21.1363L22.1783 17.8594H59.5012Z" fill="white"/>
<path d="M89.3639 16.7012C95.9131 16.7012 101.582 19.2046 106.369 24.2112C111.182 29.193 113.588 35.4204 113.588 42.8931C113.588 50.59 111.17 56.9792 106.333 62.0606C101.495 67.1421 95.6402 69.6829 88.7685 69.6829C81.8224 69.6829 75.9802 67.2044 71.242 62.2475C66.5286 57.2906 64.1719 50.8765 64.1719 43.0052C64.1719 34.9595 66.9006 28.396 72.3583 23.3145C77.0965 18.9056 82.7651 16.7012 89.3639 16.7012ZM88.6569 19.4287C84.1419 19.4287 80.5201 21.1101 77.7912 24.4728C74.3925 28.6575 72.6932 34.7852 72.6932 42.8557C72.6932 51.1256 74.4546 57.4899 77.9772 61.9486C80.6813 65.3363 84.2536 67.03 88.6941 67.03C93.4324 67.03 97.3395 65.1743 100.416 61.4628C103.517 57.7514 105.068 51.8977 105.068 43.902C105.068 35.2335 103.368 28.7697 99.9692 24.5102C97.2403 21.1225 93.4696 19.4287 88.6569 19.4287Z" fill="white"/>
<path d="M139.321 67.1421V68.5246H117.701V67.1421H119.487C121.572 67.1421 123.084 66.5318 124.027 65.3112C124.623 64.5142 124.92 62.5962 124.92 59.5573V26.8267C124.92 24.2611 124.759 22.5672 124.437 21.7452C124.188 21.1225 123.68 20.587 122.911 20.1385C121.819 19.5407 120.679 19.2419 119.487 19.2419H117.701V17.8594H139.321V19.2419H137.498C135.439 19.2419 133.938 19.8521 132.996 21.0727C132.375 21.8698 132.065 23.7878 132.065 26.8267V59.5573C132.065 62.1229 132.227 63.8167 132.549 64.6387C132.797 65.2615 133.318 65.797 134.111 66.2453C135.178 66.8431 136.307 67.1421 137.498 67.1421H139.321Z" fill="white"/>
<path d="M141.722 68.5246V67.1421H143.619C145.753 67.1421 147.266 66.4571 148.159 65.087C148.705 64.2651 148.978 62.4217 148.978 59.5573V26.8267C148.978 23.6632 148.631 21.6829 147.935 20.8858C146.969 19.7899 145.53 19.2419 143.619 19.2419H141.722V17.8594H162.262C169.803 17.8594 175.534 18.7188 179.454 20.4375C183.398 22.1562 186.561 25.0208 188.943 29.0311C191.349 33.0415 192.552 37.6745 192.552 42.9304C192.552 49.9797 190.419 55.8707 186.152 60.6034C181.364 65.8841 174.071 68.5246 164.272 68.5246H141.722ZM156.122 64.8629C159.273 65.5603 161.915 65.9091 164.048 65.9091C169.803 65.9091 174.579 63.879 178.375 59.8188C182.171 55.7586 184.068 50.2537 184.068 43.3041C184.068 36.3046 182.171 30.7872 178.375 26.7519C174.579 22.7167 169.705 20.699 163.751 20.699C161.518 20.699 158.975 21.0602 156.122 21.7826V64.8629Z" fill="white"/>
</svg>
