<svg width="632" height="357" viewBox="0 0 632 357" fill="none" xmlns="http://www.w3.org/2000/svg">
<path d="M178.817 53.4551L79.1765 195.927H141.354C150.897 195.927 158.203 193.839 163.273 189.664C168.417 185.489 172.964 177.027 176.916 164.279L180.606 164.95L173.449 205.097H49.9888V200.959L147.281 62.5133H98.7467C90.6948 62.5133 84.8424 63.4081 81.1895 65.1974C77.6109 66.912 74.8522 69.4467 72.9139 72.8016C71.0502 76.0821 69.3353 82.2701 67.7697 91.3655H63.5201L66.6515 53.4551H178.817Z" fill="white"/>
<path d="M268.563 49.9883C288.245 49.9883 305.28 57.4809 319.668 72.466C334.133 87.3766 341.363 106.015 341.363 128.381C341.363 151.418 334.096 170.541 319.559 185.75C305.019 200.959 287.425 208.563 266.773 208.563C245.898 208.563 228.341 201.145 214.102 186.309C199.936 171.473 192.854 152.276 192.854 128.717C192.854 104.636 201.055 84.9909 217.457 69.7822C231.696 56.5862 248.732 49.9883 268.563 49.9883ZM266.438 58.1517C252.869 58.1517 241.985 63.1843 233.784 73.2489C223.57 85.7739 218.463 104.114 218.463 128.269C218.463 153.021 223.756 172.07 234.343 185.415C242.469 195.554 253.205 200.623 266.55 200.623C280.79 200.623 292.532 195.069 301.776 183.961C311.096 172.852 315.756 155.332 315.756 131.401C315.756 105.456 310.648 86.1094 300.434 73.3608C292.234 63.2215 280.901 58.1517 266.438 58.1517Z" fill="white"/>
<path d="M418.695 200.959V205.097H353.723V200.959H359.09C365.354 200.959 369.9 199.132 372.734 195.479C374.524 193.094 375.418 187.353 375.418 178.258V80.2943C375.418 72.6154 374.933 67.5456 373.965 65.0855C373.218 63.2216 371.69 61.6188 369.378 60.2766C366.098 58.4874 362.671 57.5929 359.09 57.5929H353.723V53.4551H418.695V57.5929H413.218C407.029 57.5929 402.518 59.4193 399.687 63.0726C397.822 65.4583 396.891 71.1988 396.891 80.2943V178.258C396.891 185.936 397.375 191.006 398.344 193.466C399.09 195.33 400.656 196.933 403.04 198.275C406.245 200.064 409.638 200.959 413.218 200.959H418.695Z" fill="white"/>
<path d="M425.912 205.097V200.959H431.614C438.028 200.959 442.574 198.909 445.258 194.808C446.898 192.348 447.72 186.831 447.72 178.258V80.2943C447.72 70.8261 446.676 64.899 444.586 62.5133C441.68 59.2331 437.356 57.5929 431.614 57.5929H425.912V53.4551H487.642C510.305 53.4551 527.526 56.0273 539.308 61.1714C551.162 66.3156 560.666 74.8893 567.824 86.8921C575.056 98.8953 578.671 112.762 578.671 128.493C578.671 149.592 572.26 167.224 559.438 181.389C545.047 197.194 523.131 205.097 493.681 205.097H425.912ZM469.19 194.137C478.659 196.225 486.598 197.269 493.009 197.269C510.305 197.269 524.658 191.192 536.065 179.04C547.472 166.888 553.174 150.412 553.174 129.611C553.174 108.662 547.472 92.1481 536.065 80.0706C524.658 67.993 510.009 61.9541 492.116 61.9541C485.405 61.9541 477.763 63.0351 469.19 65.1974V194.137Z" fill="white"/>
<path d="M92.6996 256.527L93.2313 267.803H91.8842C91.6239 265.817 91.2693 264.399 90.8203 263.548C90.0874 262.177 89.1067 261.172 87.8773 260.534C86.6719 259.872 85.0763 259.541 83.0905 259.541H76.3183V296.275C76.3183 299.23 76.6373 301.074 77.2756 301.806C78.1738 302.799 79.5567 303.296 81.424 303.296H83.0905V304.608H62.7024V303.296H64.4045C66.4375 303.296 67.8793 302.681 68.7304 301.452C69.2503 300.695 69.5105 298.97 69.5105 296.275V259.541H63.7309C61.4851 259.541 59.8896 259.707 58.9442 260.037C57.7148 260.487 56.6628 261.349 55.7883 262.626C54.9138 263.903 54.3936 265.628 54.2281 267.803H52.8809L53.4482 256.527H92.6996Z" fill="white"/>
<path d="M108.073 259.151V278.156H118.639C121.381 278.156 123.213 277.743 124.135 276.915C125.364 275.828 126.05 273.913 126.192 271.171H127.504V287.907H126.192C125.861 285.567 125.53 284.066 125.199 283.404C124.773 282.577 124.076 281.927 123.107 281.454C122.138 280.981 120.649 280.745 118.639 280.745H108.073V296.594C108.073 298.722 108.167 300.022 108.356 300.495C108.546 300.944 108.877 301.31 109.349 301.594C109.822 301.854 110.72 301.984 112.044 301.984H120.199C122.918 301.984 124.892 301.795 126.121 301.416C127.35 301.038 128.532 300.294 129.667 299.183C131.132 297.717 132.633 295.507 134.17 292.552H135.588L131.439 304.608H94.3862V303.296H96.0883C97.2231 303.296 98.2985 303.024 99.3151 302.48C100.071 302.102 100.58 301.535 100.84 300.778C101.123 300.022 101.265 298.473 101.265 296.133V264.895C101.265 261.846 100.958 259.967 100.343 259.258C99.4923 258.312 98.0738 257.839 96.0883 257.839H94.3862V256.527H131.439L131.971 267.058H130.589C130.092 264.529 129.537 262.792 128.922 261.846C128.331 260.9 127.445 260.179 126.263 259.683C125.317 259.328 123.651 259.151 121.263 259.151H108.073Z" fill="white"/>
<path d="M178.83 255.428L179.929 271.773H178.83C177.365 266.88 175.273 263.358 172.555 261.207C169.836 259.056 166.574 257.981 162.768 257.981C159.577 257.981 156.693 258.796 154.117 260.427C151.54 262.035 149.507 264.611 148.018 268.157C146.552 271.702 145.819 276.111 145.819 281.382C145.819 285.732 146.517 289.502 147.911 292.693C149.306 295.885 151.398 298.331 154.188 300.033C157 301.735 160.203 302.586 163.797 302.586C166.917 302.586 169.671 301.924 172.058 300.601C174.445 299.253 177.07 296.594 179.929 292.622L181.029 293.332C178.618 297.61 175.805 300.742 172.59 302.728C169.375 304.713 165.557 305.706 161.137 305.706C153.171 305.706 147.001 302.752 142.628 296.842C139.366 292.445 137.735 287.268 137.735 281.312C137.735 276.513 138.811 272.105 140.962 268.086C143.113 264.067 146.068 260.959 149.826 258.761C153.608 256.539 157.733 255.428 162.201 255.428C165.676 255.428 169.103 256.278 172.484 257.981C173.476 258.5 174.185 258.761 174.611 258.761C175.249 258.761 175.805 258.536 176.278 258.087C176.892 257.449 177.329 256.562 177.589 255.428H178.83Z" fill="white"/>
<path d="M196.295 278.83H218.633V265.073C218.633 262.614 218.48 260.995 218.173 260.215C217.936 259.624 217.44 259.116 216.684 258.69C215.667 258.123 214.592 257.839 213.457 257.839H211.755V256.527H232.32V257.839H230.618C229.484 257.839 228.408 258.111 227.391 258.655C226.635 259.033 226.115 259.612 225.832 260.392C225.572 261.148 225.441 262.709 225.441 265.073V296.098C225.441 298.532 225.595 300.14 225.902 300.92C226.139 301.511 226.624 302.019 227.356 302.445C228.396 303.012 229.484 303.296 230.618 303.296H232.32V304.608H211.755V303.296H213.457C215.419 303.296 216.849 302.717 217.747 301.558C218.338 300.802 218.633 298.982 218.633 296.098V281.454H196.295V296.098C196.295 298.532 196.449 300.14 196.756 300.92C196.993 301.511 197.489 302.019 198.246 302.445C199.262 303.012 200.338 303.296 201.472 303.296H203.21V304.608H182.609V303.296H184.311C186.296 303.296 187.738 302.717 188.637 301.558C189.204 300.802 189.488 298.982 189.488 296.098V265.073C189.488 262.614 189.334 260.995 189.026 260.215C188.79 259.624 188.306 259.116 187.573 258.69C186.533 258.123 185.445 257.839 184.311 257.839H182.609V256.527H203.21V257.839H201.472C200.338 257.839 199.262 258.111 198.246 258.655C197.513 259.033 197.005 259.612 196.721 260.392C196.437 261.148 196.295 262.709 196.295 265.073V278.83Z" fill="white"/>
<path d="M230.709 256.527H243.757L273.152 292.588V264.86C273.152 261.905 272.821 260.061 272.159 259.328C271.284 258.336 269.901 257.839 268.01 257.839H266.344V256.527H283.08V257.839H281.377C279.345 257.839 277.903 258.454 277.052 259.683C276.532 260.44 276.272 262.165 276.272 264.86V305.388H274.995L243.296 266.668V296.275C243.296 299.23 243.615 301.074 244.254 301.806C245.152 302.799 246.535 303.296 248.402 303.296H250.104V304.608H233.368V303.296H235.035C237.091 303.296 238.545 302.681 239.396 301.452C239.916 300.695 240.176 298.97 240.176 296.275V262.839C238.781 261.208 237.718 260.132 236.985 259.612C236.276 259.092 235.224 258.608 233.829 258.158C233.143 257.945 232.103 257.839 230.709 257.839V256.527Z" fill="white"/>
<path d="M308.522 255.428C314.763 255.428 320.164 257.803 324.726 262.555C329.312 267.282 331.606 273.192 331.606 280.283C331.606 287.588 329.3 293.651 324.692 298.473C320.08 303.295 314.503 305.706 307.955 305.706C301.336 305.706 295.769 303.354 291.254 298.65C286.763 293.946 284.518 287.859 284.518 280.39C284.518 272.754 287.118 266.526 292.318 261.703C296.833 257.52 302.234 255.428 308.522 255.428ZM307.849 258.016C303.546 258.016 300.095 259.611 297.495 262.803C294.257 266.774 292.637 272.589 292.637 280.248C292.637 288.096 294.316 294.135 297.672 298.367C300.249 301.582 303.653 303.189 307.884 303.189C312.399 303.189 316.122 301.428 319.052 297.906C322.008 294.384 323.486 288.829 323.486 281.241C323.486 273.015 321.867 266.88 318.627 262.838C316.028 259.623 312.435 258.016 307.849 258.016Z" fill="white"/>
<path d="M373.89 291.311L375.061 291.559L370.947 304.608H333.718V303.296H335.527C337.558 303.296 339.013 302.634 339.888 301.31C340.382 300.554 340.632 298.805 340.632 296.062V265.037C340.632 262.035 340.301 260.156 339.638 259.399C338.717 258.359 337.345 257.839 335.527 257.839H333.718V256.527H355.488V257.839C352.935 257.815 351.139 258.052 350.098 258.548C349.083 259.045 348.386 259.671 348.005 260.428C347.627 261.184 347.44 262.992 347.44 265.853V296.062C347.44 298.024 347.627 299.372 348.005 300.105C348.289 300.601 348.727 300.967 349.317 301.204C349.911 301.44 351.754 301.558 354.85 301.558H358.359C362.049 301.558 364.636 301.287 366.126 300.743C367.613 300.199 368.972 299.242 370.203 297.871C371.431 296.476 372.662 294.289 373.89 291.311Z" fill="white"/>
<path d="M401.037 255.428C407.276 255.428 412.678 257.803 417.239 262.555C421.826 267.282 424.119 273.192 424.119 280.283C424.119 287.588 421.813 293.651 417.205 298.473C412.594 303.295 407.017 305.706 400.468 305.706C393.848 305.706 388.283 303.354 383.769 298.65C379.276 293.946 377.03 287.859 377.03 280.39C377.03 272.754 379.632 266.526 384.831 261.703C389.346 257.52 394.748 255.428 401.037 255.428ZM400.362 258.016C396.06 258.016 392.607 259.611 390.008 262.803C386.768 266.774 385.15 272.589 385.15 280.248C385.15 288.096 386.828 294.135 390.186 298.367C392.761 301.582 396.166 303.189 400.396 303.189C404.911 303.189 408.635 301.428 411.566 297.906C414.521 294.384 415.999 288.829 415.999 281.241C415.999 273.015 414.381 266.88 411.141 262.838C408.541 259.623 404.948 258.016 400.362 258.016Z" fill="white"/>
<path d="M469.346 255.428L470.587 270.603H469.346C468.093 266.821 466.475 263.973 464.488 262.058C461.629 259.292 457.952 257.91 453.462 257.91C447.339 257.91 442.684 260.333 439.491 265.178C436.819 269.268 435.485 274.137 435.485 279.787C435.485 284.373 436.369 288.557 438.144 292.339C439.915 296.121 442.234 298.898 445.092 300.671C447.976 302.42 450.932 303.295 453.959 303.295C455.731 303.295 457.446 303.071 459.099 302.622C460.754 302.172 462.348 301.511 463.885 300.636V286.737C463.885 284.326 463.697 282.753 463.319 282.021C462.963 281.264 462.398 280.697 461.617 280.319C460.861 279.917 459.514 279.716 457.574 279.716V278.369H476.188V279.716H475.304C473.461 279.716 472.196 280.33 471.508 281.56C471.036 282.434 470.799 284.16 470.799 286.737V301.451C468.081 302.917 465.4 303.993 462.751 304.678C460.105 305.364 457.161 305.706 453.922 305.706C444.633 305.706 437.575 302.728 432.755 296.771C429.137 292.303 427.328 287.15 427.328 281.312C427.328 277.08 428.346 273.026 430.377 269.15C432.789 264.54 436.097 260.995 440.306 258.512C443.83 256.456 447.989 255.428 452.787 255.428C454.537 255.428 456.121 255.57 457.539 255.853C458.98 256.137 461.014 256.763 463.638 257.732C464.963 258.229 465.847 258.477 466.297 258.477C466.747 258.477 467.125 258.276 467.431 257.874C467.762 257.449 467.962 256.633 468.034 255.428H469.346Z" fill="white"/>
<path d="M497.483 303.296V304.608H476.882V303.296H478.585C480.572 303.296 482.012 302.717 482.912 301.558C483.477 300.802 483.762 298.982 483.762 296.098V265.037C483.762 262.602 483.608 260.995 483.302 260.215C483.065 259.624 482.581 259.116 481.846 258.69C480.806 258.123 479.719 257.839 478.585 257.839H476.882V256.527H497.483V257.839H495.746C493.784 257.839 492.353 258.418 491.457 259.577C490.866 260.333 490.569 262.153 490.569 265.037V296.098C490.569 298.532 490.722 300.14 491.032 300.92C491.266 301.511 491.763 302.019 492.519 302.445C493.537 303.012 494.612 303.296 495.746 303.296H497.483Z" fill="white"/>
<path d="M512.255 259.151V278.156H522.822C525.562 278.156 527.396 277.743 528.317 276.915C529.545 275.828 530.233 273.913 530.373 271.171H531.685V287.907H530.373C530.042 285.567 529.711 284.066 529.38 283.404C528.955 282.577 528.258 281.927 527.289 281.454C526.318 280.981 524.831 280.745 522.822 280.745H512.255V296.594C512.255 298.722 512.349 300.022 512.537 300.495C512.727 300.944 513.058 301.31 513.53 301.594C514.005 301.854 514.902 301.984 516.226 301.984H524.381C527.099 301.984 529.073 301.795 530.301 301.416C531.532 301.038 532.713 300.294 533.847 299.183C535.313 297.717 536.815 295.507 538.353 292.552H539.768L535.622 304.608H498.568V303.296H500.271C501.405 303.296 502.479 303.024 503.495 302.48C504.254 302.102 504.76 301.535 505.02 300.778C505.304 300.022 505.448 298.473 505.448 296.133V264.895C505.448 261.846 505.138 259.967 504.526 259.258C503.673 258.312 502.255 257.839 500.271 257.839H498.568V256.527H535.622L536.153 267.058H534.769C534.272 264.529 533.719 262.792 533.104 261.846C532.513 260.9 531.626 260.179 530.445 259.683C529.498 259.328 527.833 259.151 525.443 259.151H512.255Z" fill="white"/>
<path d="M572.588 255.428V272.057H571.276C570.851 268.866 570.083 266.325 568.971 264.434C567.883 262.543 566.324 261.042 564.29 259.931C562.256 258.82 560.154 258.264 557.979 258.264C555.52 258.264 553.487 259.021 551.881 260.533C550.272 262.023 549.469 263.725 549.469 265.639C549.469 267.105 549.978 268.44 550.993 269.646C552.459 271.419 555.945 273.783 561.454 276.738C565.946 279.149 569.005 281.004 570.636 282.304C572.292 283.581 573.557 285.094 574.432 286.843C575.328 288.592 575.778 290.424 575.778 292.339C575.778 295.979 574.36 299.123 571.523 301.771C568.711 304.394 565.081 305.706 560.638 305.706C559.245 305.706 557.932 305.6 556.701 305.387C555.97 305.269 554.446 304.844 552.128 304.111C549.834 303.354 548.381 302.976 547.766 302.976C547.176 302.976 546.704 303.153 546.348 303.508C546.016 303.863 545.77 304.595 545.604 305.706H544.292V289.218H545.604C546.219 292.67 547.047 295.258 548.085 296.984C549.125 298.686 550.709 300.104 552.837 301.239C554.989 302.373 557.342 302.941 559.895 302.941C562.847 302.941 565.178 302.161 566.877 300.601C568.605 299.04 569.467 297.197 569.467 295.069C569.467 293.887 569.136 292.693 568.474 291.488C567.836 290.282 566.83 289.159 565.459 288.119C564.537 287.41 562.022 285.909 557.907 283.616C553.796 281.3 550.862 279.456 549.116 278.085C547.388 276.714 546.076 275.201 545.179 273.546C544.279 271.892 543.833 270.072 543.833 268.086C543.833 264.635 545.154 261.668 547.804 259.186C550.45 256.681 553.818 255.428 557.907 255.428C560.46 255.428 563.169 256.054 566.027 257.307C567.352 257.898 568.286 258.193 568.83 258.193C569.442 258.193 569.939 258.016 570.317 257.661C570.72 257.283 571.039 256.539 571.276 255.428H572.588Z" fill="white"/>
</svg>
